<?xml version="1.0" encoding="utf-8"?><!--Generator: Adobe Illustrator 24.0.1, SVG Export Plug-In . SVG Version: 6.00 Build 0)--><svg version="1.1" id="圖層_1" xmlns="http://www.w3.org/2000/svg" xmlns:xlink="http://www.w3.org/1999/xlink" x="0px" y="0px" viewBox="0 0 128 128" enable-background="new 0 0 128 128" xml:space="preserve"><path fill="none" d="z"/><path fill="#C33837" stroke="#333435" stroke-width="4.48" stroke-linecap="round" stroke-linejoin="round" stroke-miterlimit="12.8" d=" M113.78,67.43l-46.35,46.35c-1.89,1.89-4.97,1.89-6.85,0L14.22,67.43c-1.89-1.89-1.89-4.97,0-6.85l46.35-46.35 c1.89-1.89,4.97-1.89,6.85,0l46.35,46.35C115.67,62.46,115.67,65.54,113.78,67.43z"/><g><line fill="none" stroke="#F5E169" stroke-width="4.48" stroke-linecap="round" stroke-linejoin="round" stroke-miterlimit="12.8" x1="46.63" y1="43.98" x2="57.54" y2="43.98"/><line fill="none" stroke="#F5E169" stroke-width="4.48" stroke-linecap="round" stroke-linejoin="round" stroke-miterlimit="12.8" x1="65.83" y1="43.52" x2="81.78" y2="43.52"/><line fill="none" stroke="#F5E169" stroke-width="4.48" stroke-linecap="round" stroke-linejoin="round" stroke-miterlimit="12.8" x1="46.63" y1="51.19" x2="57.54" y2="51.19"/><line fill="none" stroke="#F5E169" stroke-width="4.48" stroke-linecap="round" stroke-linejoin="round" stroke-miterlimit="12.8" x1="52.08" y1="51.65" x2="52.08" y2="84.48"/><line fill="none" stroke="#F5E169" stroke-width="4.48" stroke-linecap="round" stroke-linejoin="round" stroke-miterlimit="12.8" x1="52.08" y1="59.03" x2="46.22" y2="67.55"/><line fill="none" stroke="#F5E169" stroke-width="4.48" stroke-linecap="round" stroke-linejoin="round" stroke-miterlimit="12.8" x1="52.08" y1="59.03" x2="57.95" y2="67.55"/><rect x="67" y="51.65" fill="none" stroke="#F5E169" stroke-width="4.48" stroke-linecap="round" stroke-linejoin="round" stroke-miterlimit="12.8" width="13.17" height="8.87"/><rect x="65.51" y="68.22" fill="none" stroke="#F5E169" stroke-width="4.48" stroke-linecap="round" stroke-linejoin="round" stroke-miterlimit="12.8" width="16.26" height="16.26"/><line fill="none" stroke="#F5E169" stroke-width="4.48" stroke-linecap="round" stroke-linejoin="round" stroke-miterlimit="12.8" x1="65.51" y1="76.35" x2="81.78" y2="76.35"/><line fill="none" stroke="#F5E169" stroke-width="4.48" stroke-linecap="round" stroke-linejoin="round" stroke-miterlimit="12.8" x1="73.65" y1="84.48" x2="73.65" y2="68.22"/></g><path fill="none" d="z"/><metadata xmlns:d="https://loading.io/stock/">
<d:name>spring couplet</d:name>
<d:tags>lucky words,festival,new year,wish,jubilant,custom</d:tags>
<d:license>by</d:license>
<d:slug>ipzafk</d:slug>
</metadata></svg>