<?xml version="1.0" encoding="utf-8"?><!--Generator: Adobe Illustrator 24.0.1, SVG Export Plug-In . SVG Version: 6.00 Build 0)--><svg version="1.1" id="圖層_1" xmlns="http://www.w3.org/2000/svg" xmlns:xlink="http://www.w3.org/1999/xlink" x="0px" y="0px" viewBox="0 0 100 100" enable-background="new 0 0 100 100" xml:space="preserve"><g><path fill="#F5E169" stroke="#333435" stroke-width="3.5" stroke-linecap="round" stroke-linejoin="round" stroke-miterlimit="10" d=" M62.94,40.72H37.06l1.94-6.77c1.41-4.91,5.9-7.16,11.01-7.16h0c5.11,0,9.6,2.25,11.01,7.16L62.94,40.72z"/><path fill="#FCB711" stroke="#333435" stroke-width="3.5" stroke-linecap="round" stroke-linejoin="round" stroke-miterlimit="10" d=" M57.07,54.46H42.93c-4.22,0-8.01-2.6-9.53-6.54l-4.48-11.61c-0.73-1.9,1.2-3.76,3.05-2.92c12.03,5.45,24.05,5.45,36.08,0 c1.85-0.84,3.79,1.02,3.05,2.92l-4.48,11.61C65.09,51.86,61.3,54.46,57.07,54.46z"/></g><g><path fill="#F5E169" stroke="#333435" stroke-width="3.5" stroke-linecap="round" stroke-linejoin="round" stroke-miterlimit="10" d=" M41.69,59.48H15.81l1.94-6.77c1.41-4.91,5.9-7.16,11.01-7.16h0c5.11,0,9.6,2.25,11.01,7.16L41.69,59.48z"/><path fill="#FCB711" stroke="#333435" stroke-width="3.5" stroke-linecap="round" stroke-linejoin="round" stroke-miterlimit="10" d=" M35.82,73.21H21.68c-4.22,0-8.01-2.6-9.53-6.54L7.66,55.07c-0.73-1.9,1.2-3.76,3.05-2.92c12.03,5.45,24.05,5.45,36.08,0 c1.85-0.84,3.79,1.02,3.05,2.92l-4.48,11.61C43.84,70.61,40.05,73.21,35.82,73.21z"/></g><g><path fill="#F5E169" stroke="#333435" stroke-width="3.5" stroke-linecap="round" stroke-linejoin="round" stroke-miterlimit="10" d=" M58.31,59.48h25.89l-1.94-6.77c-1.41-4.91-5.9-7.16-11.01-7.16h0c-5.11,0-9.6,2.25-11.01,7.16L58.31,59.48z"/><path fill="#FCB711" stroke="#333435" stroke-width="3.5" stroke-linecap="round" stroke-linejoin="round" stroke-miterlimit="10" d=" M64.18,73.21h14.15c4.22,0,8.01-2.6,9.53-6.54l4.48-11.61c0.73-1.9-1.2-3.76-3.05-2.92c-12.03,5.45-24.05,5.45-36.08,0 c-1.85-0.84-3.79,1.02-3.05,2.92l4.48,11.61C56.16,70.61,59.95,73.21,64.18,73.21z"/></g><metadata xmlns:d="https://loading.io/stock/">
<d:name>gold ingot</d:name>
<d:tags>sycee,rich,new year,economic,financial,fund,money</d:tags>
<d:license>by</d:license>
<d:slug>jyyc67</d:slug>
</metadata></svg>