<?xml version="1.0" encoding="utf-8"?><!--Generator: Adobe Illustrator 24.0.1, SVG Export Plug-In . SVG Version: 6.00 Build 0)--><svg version="1.1" id="圖層_1" xmlns="http://www.w3.org/2000/svg" xmlns:xlink="http://www.w3.org/1999/xlink" x="0px" y="0px" viewBox="0 0 100 100" enable-background="new 0 0 100 100" xml:space="preserve"><path fill="none" stroke="#333435" stroke-width="3.5" stroke-linecap="round" stroke-linejoin="round" stroke-miterlimit="10" d=" M49.82,32.71c0.12-8.32,5.19-16.38,12.63-20.09"/><path fill="#FCB711" stroke="#333435" stroke-width="3.5" stroke-linecap="round" stroke-linejoin="round" stroke-miterlimit="10" d=" M87.5,59.58c0,18.41-17.18,27.81-37.5,27.81s-37.5-9.4-37.5-27.81S29.21,31.2,50,33.39C70.88,31.2,87.5,41.17,87.5,59.58z"/><rect x="40.16" y="49.73" transform="matrix(0.7071 -0.7071 0.7071 0.7071 -27.4813 52.8045)" fill="#C33837" stroke="#333435" stroke-width="3.5" stroke-linecap="round" stroke-linejoin="round" stroke-miterlimit="10" width="19.68" height="19.68"/><path fill="#ACBD81" stroke="#333435" stroke-width="3.5" stroke-linecap="round" stroke-linejoin="round" stroke-miterlimit="10" d=" M83.11,39.38c0,0-12.04,4.22-18.52-0.99s-4.95-17.87-4.95-17.87s12.04-4.22,18.52,0.99S83.11,39.38,83.11,39.38z"/><metadata xmlns:d="https://loading.io/stock/">
<d:name>tangerine</d:name>
<d:tags>orange,worship,celebrate,new year,homophonic pun,citrus fruit</d:tags>
<d:license>by</d:license>
<d:slug>lxd0u5</d:slug>
</metadata></svg>