<?xml version="1.0" encoding="utf-8"?><!--Generator: Adobe Illustrator 24.0.1, SVG Export Plug-In . SVG Version: 6.00 Build 0)--><svg version="1.1" id="圖層_1" xmlns="http://www.w3.org/2000/svg" xmlns:xlink="http://www.w3.org/1999/xlink" x="0px" y="0px" viewBox="0 0 100 100" enable-background="new 0 0 100 100" xml:space="preserve"><g><rect x="56.46" y="14.76" transform="matrix(0.7071 -0.7071 0.7071 0.7071 1.735 50.3035)" fill="#C33837" stroke="#333435" stroke-width="3.5" stroke-linecap="round" stroke-linejoin="round" stroke-miterlimit="10" width="10.26" height="16.59"/><rect x="64.5" y="28.02" transform="matrix(0.7071 -0.7071 0.7071 0.7071 -1.5975 58.3486)" fill="#FCB711" stroke="#333435" stroke-width="3.5" stroke-linecap="round" stroke-linejoin="round" stroke-miterlimit="10" width="10.26" height="6.17"/><line fill="none" stroke="#333435" stroke-width="3.5" stroke-linecap="round" stroke-linejoin="round" stroke-miterlimit="10" x1="55.73" y1="17.19" x2="50.7" y2="12.17"/></g><g><rect x="56.46" y="30.01" transform="matrix(0.7071 -0.7071 0.7071 0.7071 -9.0441 54.7683)" fill="#C33837" stroke="#333435" stroke-width="3.5" stroke-linecap="round" stroke-linejoin="round" stroke-miterlimit="10" width="10.26" height="16.59"/><rect x="64.5" y="43.26" transform="matrix(0.7071 -0.7071 0.7071 0.7071 -12.3765 62.8135)" fill="#FCB711" stroke="#333435" stroke-width="3.5" stroke-linecap="round" stroke-linejoin="round" stroke-miterlimit="10" width="10.26" height="6.17"/><line fill="none" stroke="#333435" stroke-width="3.5" stroke-linecap="round" stroke-linejoin="round" stroke-miterlimit="10" x1="55.73" y1="32.44" x2="50.48" y2="27.19"/></g><g><rect x="56.46" y="45.25" transform="matrix(0.7071 -0.7071 0.7071 0.7071 -19.8232 59.2332)" fill="#C33837" stroke="#333435" stroke-width="3.5" stroke-linecap="round" stroke-linejoin="round" stroke-miterlimit="10" width="10.26" height="16.59"/><rect x="64.5" y="58.51" transform="matrix(0.7071 -0.7071 0.7071 0.7071 -23.1556 67.2783)" fill="#FCB711" stroke="#333435" stroke-width="3.5" stroke-linecap="round" stroke-linejoin="round" stroke-miterlimit="10" width="10.26" height="6.17"/><line fill="none" stroke="#333435" stroke-width="3.5" stroke-linecap="round" stroke-linejoin="round" stroke-miterlimit="10" x1="55.73" y1="47.68" x2="50.48" y2="42.43"/></g><g><rect x="56.46" y="60.02" transform="matrix(0.7071 -0.7071 0.7071 0.7071 -30.2654 63.5585)" fill="#C33837" stroke="#333435" stroke-width="3.5" stroke-linecap="round" stroke-linejoin="round" stroke-miterlimit="10" width="10.26" height="16.59"/><rect x="64.5" y="73.27" transform="matrix(0.7071 -0.7071 0.7071 0.7071 -33.5978 71.6036)" fill="#FCB711" stroke="#333435" stroke-width="3.5" stroke-linecap="round" stroke-linejoin="round" stroke-miterlimit="10" width="10.26" height="6.17"/><line fill="none" stroke="#333435" stroke-width="3.5" stroke-linecap="round" stroke-linejoin="round" stroke-miterlimit="10" x1="55.73" y1="62.45" x2="50.48" y2="57.2"/></g><g><rect x="33.28" y="15.72" transform="matrix(-0.7071 -0.7071 0.7071 -0.7071 48.5936 68.1486)" fill="#C33837" stroke="#333435" stroke-width="3.5" stroke-linecap="round" stroke-linejoin="round" stroke-miterlimit="10" width="10.26" height="16.59"/><rect x="25.23" y="28.97" transform="matrix(-0.7071 -0.7071 0.7071 -0.7071 29.1709 76.1937)" fill="#FCB711" stroke="#333435" stroke-width="3.5" stroke-linecap="round" stroke-linejoin="round" stroke-miterlimit="10" width="10.26" height="6.17"/><line fill="none" stroke="#333435" stroke-width="3.5" stroke-linecap="round" stroke-linejoin="round" stroke-miterlimit="10" x1="44.27" y1="18.15" x2="50.48" y2="11.94"/></g><g><rect x="33.28" y="30.96" transform="matrix(-0.7071 -0.7071 0.7071 -0.7071 37.8145 94.1716)" fill="#C33837" stroke="#333435" stroke-width="3.5" stroke-linecap="round" stroke-linejoin="round" stroke-miterlimit="10" width="10.26" height="16.59"/><rect x="25.23" y="44.21" transform="matrix(-0.7071 -0.7071 0.7071 -0.7071 18.3919 102.2167)" fill="#FCB711" stroke="#333435" stroke-width="3.5" stroke-linecap="round" stroke-linejoin="round" stroke-miterlimit="10" width="10.26" height="6.17"/><line fill="none" stroke="#333435" stroke-width="3.5" stroke-linecap="round" stroke-linejoin="round" stroke-miterlimit="10" x1="44.27" y1="33.39" x2="50.48" y2="27.2"/></g><g><rect x="33.28" y="46.21" transform="matrix(-0.7071 -0.7071 0.7071 -0.7071 27.0354 120.1945)" fill="#C33837" stroke="#333435" stroke-width="3.5" stroke-linecap="round" stroke-linejoin="round" stroke-miterlimit="10" width="10.26" height="16.59"/><rect x="25.23" y="59.46" transform="matrix(-0.7071 -0.7071 0.7071 -0.7071 7.6128 128.2397)" fill="#FCB711" stroke="#333435" stroke-width="3.5" stroke-linecap="round" stroke-linejoin="round" stroke-miterlimit="10" width="10.26" height="6.17"/><line fill="none" stroke="#333435" stroke-width="3.5" stroke-linecap="round" stroke-linejoin="round" stroke-miterlimit="10" x1="44.27" y1="48.63" x2="50.48" y2="42.43"/></g><g><rect x="33.28" y="60.97" transform="matrix(-0.7071 -0.7071 0.7071 -0.7071 16.5932 145.4043)" fill="#C33837" stroke="#333435" stroke-width="3.5" stroke-linecap="round" stroke-linejoin="round" stroke-miterlimit="10" width="10.26" height="16.59"/><rect x="25.23" y="74.23" transform="matrix(-0.7071 -0.7071 0.7071 -0.7071 -2.8294 153.4494)" fill="#FCB711" stroke="#333435" stroke-width="3.5" stroke-linecap="round" stroke-linejoin="round" stroke-miterlimit="10" width="10.26" height="6.17"/><line fill="none" stroke="#333435" stroke-width="3.5" stroke-linecap="round" stroke-linejoin="round" stroke-miterlimit="10" x1="44.27" y1="63.4" x2="50.48" y2="57.2"/></g><g><rect x="45.35" y="72.24" fill="#C33837" stroke="#333435" stroke-width="3.5" stroke-linecap="round" stroke-linejoin="round" stroke-miterlimit="10" width="10.26" height="16.59"/><rect x="45.35" y="88.83" fill="#FCB711" stroke="#333435" stroke-width="3.5" stroke-linecap="round" stroke-linejoin="round" stroke-miterlimit="10" width="10.26" height="6.17"/><line fill="none" stroke="#333435" stroke-width="3.5" stroke-linecap="round" stroke-linejoin="round" stroke-miterlimit="10" x1="50.48" y1="72.24" x2="50.48" y2="5"/></g><metadata xmlns:d="https://loading.io/stock/">
<d:name>firecrackers</d:name>
<d:tags>fireworks,festival,new year,jubilant,custom</d:tags>
<d:license>by</d:license>
<d:slug>vjha4h</d:slug>
</metadata></svg>