<?xml version="1.0" encoding="utf-8"?><!--Generator: Adobe Illustrator 24.0.1, SVG Export Plug-In . SVG Version: 6.00 Build 0)--><svg version="1.1" id="圖層_1" xmlns="http://www.w3.org/2000/svg" xmlns:xlink="http://www.w3.org/1999/xlink" x="0px" y="0px" viewBox="0 0 100 100" enable-background="new 0 0 100 100" xml:space="preserve"><g><line fill="none" stroke="#333435" stroke-width="3.5" stroke-linecap="round" stroke-linejoin="round" stroke-miterlimit="10" x1="50" y1="18.53" x2="50" y2="7.5"/><path fill="#FCB711" stroke="#333435" stroke-width="3.5" stroke-linecap="round" stroke-linejoin="round" stroke-miterlimit="10" d=" M65.39,28.89H34.61v-5.85c0-2.49,2.02-4.51,4.51-4.51h21.75c2.49,0,4.51,2.02,4.51,4.51V28.89z"/></g><g><path fill="none" stroke="#333435" stroke-width="3.5" stroke-linecap="round" stroke-linejoin="round" stroke-miterlimit="10" d=" M50,77.27c0,6.7,0.32,10.82-1.85,15.23"/><path fill="none" stroke="#333435" stroke-width="3.5" stroke-linecap="round" stroke-linejoin="round" stroke-miterlimit="10" d=" M42.92,77.27c0,6.19-0.96,11.42-5.06,15.23"/><line fill="none" stroke="#333435" stroke-width="3.5" stroke-linecap="round" stroke-linejoin="round" stroke-miterlimit="10" x1="57.08" y1="77.27" x2="57.08" y2="92.5"/><path fill="#FCB711" stroke="#333435" stroke-width="3.5" stroke-linecap="round" stroke-linejoin="round" stroke-miterlimit="10" d=" M65.39,66.91H34.61v5.85c0,2.49,2.02,4.51,4.51,4.51h21.75c2.49,0,4.51-2.02,4.51-4.51V66.91z"/></g><g><path fill="#C33837" stroke="#333435" stroke-width="3.5" stroke-linecap="round" stroke-linejoin="round" stroke-miterlimit="10" d=" M42.31,28.89h-7.69c-12.21,11.95-12.96,24.58,0,38.03h7.69C35.83,53.47,36.2,40.83,42.31,28.89z"/><path fill="#C33837" stroke="#333435" stroke-width="3.5" stroke-linecap="round" stroke-linejoin="round" stroke-miterlimit="10" d=" M42.31,28.89c-6.11,11.95-6.48,24.58,0,38.03H50c0-13.45,0-26.08,0-38.03H42.31z"/><path fill="#C33837" stroke="#333435" stroke-width="3.5" stroke-linecap="round" stroke-linejoin="round" stroke-miterlimit="10" d=" M65.39,28.89h-7.69c6.11,11.95,6.48,24.58,0,38.03h7.69C78.35,53.47,77.6,40.83,65.39,28.89z"/><path fill="#C33837" stroke="#333435" stroke-width="3.5" stroke-linecap="round" stroke-linejoin="round" stroke-miterlimit="10" d=" M57.69,28.89H50c0,11.95,0,24.58,0,38.03h7.69C64.17,53.47,63.8,40.83,57.69,28.89z"/></g><metadata xmlns:d="https://loading.io/stock/">
<d:name>lantern</d:name>
<d:tags>light,festival,temple,torch,beacon,portable,custom</d:tags>
<d:license>by</d:license>
<d:slug>w0xk1k</d:slug>
</metadata></svg>