<?xml version="1.0" encoding="utf-8"?><!--Generator: Adobe Illustrator 24.0.1, SVG Export Plug-In . SVG Version: 6.00 Build 0)--><svg version="1.1" id="圖層_1" xmlns="http://www.w3.org/2000/svg" xmlns:xlink="http://www.w3.org/1999/xlink" x="0px" y="0px" viewBox="0 0 100 100" enable-background="new 0 0 100 100" xml:space="preserve"><g><line fill="none" stroke="#333435" stroke-width="3.5" stroke-linecap="round" stroke-linejoin="round" stroke-miterlimit="10" x1="36.12" y1="56.1" x2="50" y2="67.75"/><path fill="#C33837" stroke="#333435" stroke-width="3.5" stroke-linecap="round" stroke-linejoin="round" stroke-miterlimit="10" d=" M38.35,53.87l-19.9-23.71c-4.37,3.67-8.08,8.09-10.96,13.06l26.82,15.48C35.38,56.86,36.74,55.22,38.35,53.87z"/></g><g><line fill="none" stroke="#333435" stroke-width="3.5" stroke-linecap="round" stroke-linejoin="round" stroke-miterlimit="10" x1="50" y1="67.75" x2="40.95" y2="52.07"/><path fill="#F47E5F" stroke="#333435" stroke-width="3.5" stroke-linecap="round" stroke-linejoin="round" stroke-miterlimit="10" d=" M43.81,50.73l-10.6-29.12c-5.43,1.98-10.41,4.89-14.75,8.54l19.9,23.71C39.96,52.52,41.8,51.46,43.81,50.73z"/></g><g><line fill="none" stroke="#333435" stroke-width="3.5" stroke-linecap="round" stroke-linejoin="round" stroke-miterlimit="10" x1="50" y1="67.75" x2="46.85" y2="49.9"/><path fill="#C33837" stroke="#333435" stroke-width="3.5" stroke-linecap="round" stroke-linejoin="round" stroke-miterlimit="10" d=" M50,49.62V18.67c-5.9,0-11.55,1.04-16.79,2.95l10.6,29.12C45.74,50.03,47.82,49.62,50,49.62z"/></g><g><line fill="none" stroke="#333435" stroke-width="3.5" stroke-linecap="round" stroke-linejoin="round" stroke-miterlimit="10" x1="53.14" y1="49.91" x2="50" y2="67.75"/><path fill="#F47E5F" stroke="#333435" stroke-width="3.5" stroke-linecap="round" stroke-linejoin="round" stroke-miterlimit="10" d=" M56.19,50.73l10.6-29.12C61.55,19.71,55.9,18.67,50,18.67v30.96C52.18,49.62,54.26,50.03,56.19,50.73z"/></g><g><line fill="none" stroke="#333435" stroke-width="3.5" stroke-linecap="round" stroke-linejoin="round" stroke-miterlimit="10" x1="50" y1="67.75" x2="59.06" y2="52.06"/><path fill="#C33837" stroke="#333435" stroke-width="3.5" stroke-linecap="round" stroke-linejoin="round" stroke-miterlimit="10" d=" M61.65,53.87l19.9-23.71c-4.34-3.65-9.32-6.56-14.75-8.54l-10.6,29.12C58.2,51.46,60.04,52.52,61.65,53.87z"/></g><g><line fill="none" stroke="#333435" stroke-width="3.5" stroke-linecap="round" stroke-linejoin="round" stroke-miterlimit="10" x1="50" y1="67.75" x2="63.87" y2="56.11"/><path fill="#F47E5F" stroke="#333435" stroke-width="3.5" stroke-linecap="round" stroke-linejoin="round" stroke-miterlimit="10" d=" M65.68,58.69L92.5,43.21c-2.87-4.97-6.59-9.39-10.96-13.06l-19.9,23.71C63.26,55.22,64.62,56.86,65.68,58.69z"/></g><line fill="none" stroke="#333435" stroke-width="3.5" stroke-linecap="round" stroke-linejoin="round" stroke-miterlimit="10" x1="50" y1="67.75" x2="50" y2="67.75"/><line fill="none" stroke="#333435" stroke-width="3.5" stroke-linecap="round" stroke-linejoin="round" stroke-miterlimit="10" x1="50" y1="67.75" x2="50" y2="67.75"/><line fill="none" stroke="#333435" stroke-width="3.5" stroke-linecap="round" stroke-linejoin="round" stroke-miterlimit="10" x1="50" y1="67.75" x2="50" y2="67.75"/><line fill="none" stroke="#333435" stroke-width="3.5" stroke-linecap="round" stroke-linejoin="round" stroke-miterlimit="10" x1="50" y1="67.75" x2="50" y2="67.75"/><line fill="none" stroke="#333435" stroke-width="3.5" stroke-linecap="round" stroke-linejoin="round" stroke-miterlimit="10" x1="50" y1="67.75" x2="50" y2="67.75"/><line fill="none" stroke="#333435" stroke-width="3.5" stroke-linecap="round" stroke-linejoin="round" stroke-miterlimit="10" x1="50" y1="67.75" x2="50" y2="67.75"/><line fill="none" stroke="#333435" stroke-width="3.5" stroke-linecap="round" stroke-linejoin="round" stroke-miterlimit="10" x1="50" y1="67.75" x2="50" y2="67.75"/><line fill="none" stroke="#333435" stroke-width="3.5" stroke-linecap="round" stroke-linejoin="round" stroke-miterlimit="10" x1="50" y1="67.75" x2="50" y2="67.75"/><line fill="none" stroke="#333435" stroke-width="3.5" stroke-linecap="round" stroke-linejoin="round" stroke-miterlimit="10" x1="50" y1="67.75" x2="50" y2="67.75"/><line fill="none" stroke="#333435" stroke-width="3.5" stroke-linecap="round" stroke-linejoin="round" stroke-miterlimit="10" x1="50" y1="67.75" x2="50" y2="67.75"/><line fill="none" stroke="#333435" stroke-width="3.5" stroke-linecap="round" stroke-linejoin="round" stroke-miterlimit="10" x1="50" y1="67.75" x2="50" y2="67.75"/><line fill="none" stroke="#333435" stroke-width="3.5" stroke-linecap="round" stroke-linejoin="round" stroke-miterlimit="10" x1="50" y1="67.75" x2="50" y2="67.75"/><line fill="none" stroke="#333435" stroke-width="3.5" stroke-linecap="round" stroke-linejoin="round" stroke-miterlimit="10" x1="50" y1="67.75" x2="50" y2="67.75"/><line fill="none" stroke="#333435" stroke-width="3.5" stroke-linecap="round" stroke-linejoin="round" stroke-miterlimit="10" x1="50" y1="67.75" x2="50" y2="67.75"/><line fill="none" stroke="#333435" stroke-width="3.5" stroke-linecap="round" stroke-linejoin="round" stroke-miterlimit="10" x1="50" y1="67.75" x2="50" y2="67.75"/><line fill="none" stroke="#333435" stroke-width="3.5" stroke-linecap="round" stroke-linejoin="round" stroke-miterlimit="10" x1="50" y1="67.75" x2="50" y2="67.75"/><line fill="none" stroke="#333435" stroke-width="3.5" stroke-linecap="round" stroke-linejoin="round" stroke-miterlimit="10" x1="50" y1="67.75" x2="50" y2="67.75"/><polygon fill="#C33837" stroke="#333435" stroke-width="3.5" stroke-linecap="round" stroke-linejoin="round" stroke-miterlimit="10" points=" 57.16,81.33 42.84,81.33 50,69.1 "/><circle fill="#F7B26A" stroke="#333435" stroke-width="3.5" stroke-linecap="round" stroke-linejoin="round" stroke-miterlimit="10" cx="50" cy="69.1" r="4.5"/><metadata xmlns:d="https://loading.io/stock/">
<d:name>folding fan</d:name>
<d:tags>festival,plication,hand fan,performance,cool</d:tags>
<d:license>by</d:license>
<d:slug>y0sx0n</d:slug>
</metadata></svg>